<mxfile host="Electron" modified="2024-07-31T14:15:10.951Z" agent="Mozilla/5.0 (Macintosh; Intel Mac OS X 10_15_7) AppleWebKit/537.36 (KHTML, like Gecko) draw.io/21.6.5 Chrome/114.0.5735.243 Electron/25.3.1 Safari/537.36" etag="udZsu9sE_4YO2D6VF_GJ" version="21.6.5" type="device">
  <diagram name="Page-1" id="xVfKJTF_y-_DVoiu0gmK">
    <mxGraphModel dx="1026" dy="1912" grid="1" gridSize="10" guides="1" tooltips="1" connect="1" arrows="1" fold="1" page="1" pageScale="1" pageWidth="827" pageHeight="1169" math="0" shadow="0">
      <root>
        <mxCell id="0" />
        <mxCell id="1" parent="0" />
        <mxCell id="AOGkiy_fdFvvolxUNDBI-3" style="edgeStyle=orthogonalEdgeStyle;orthogonalLoop=1;jettySize=auto;html=1;curved=1;" edge="1" parent="1" source="AOGkiy_fdFvvolxUNDBI-1" target="AOGkiy_fdFvvolxUNDBI-2">
          <mxGeometry relative="1" as="geometry">
            <Array as="points">
              <mxPoint x="170" y="-84" />
            </Array>
          </mxGeometry>
        </mxCell>
        <mxCell id="AOGkiy_fdFvvolxUNDBI-10" style="edgeStyle=orthogonalEdgeStyle;rounded=0;orthogonalLoop=1;jettySize=auto;html=1;startArrow=classic;startFill=1;" edge="1" parent="1" source="AOGkiy_fdFvvolxUNDBI-1" target="AOGkiy_fdFvvolxUNDBI-9">
          <mxGeometry relative="1" as="geometry" />
        </mxCell>
        <mxCell id="AOGkiy_fdFvvolxUNDBI-14" style="edgeStyle=orthogonalEdgeStyle;rounded=0;orthogonalLoop=1;jettySize=auto;html=1;entryX=0.5;entryY=0;entryDx=0;entryDy=0;entryPerimeter=0;strokeColor=none;" edge="1" parent="1" source="AOGkiy_fdFvvolxUNDBI-1" target="AOGkiy_fdFvvolxUNDBI-13">
          <mxGeometry relative="1" as="geometry" />
        </mxCell>
        <mxCell id="AOGkiy_fdFvvolxUNDBI-15" style="edgeStyle=orthogonalEdgeStyle;orthogonalLoop=1;jettySize=auto;html=1;curved=1;" edge="1" parent="1" source="AOGkiy_fdFvvolxUNDBI-1" target="AOGkiy_fdFvvolxUNDBI-13">
          <mxGeometry relative="1" as="geometry">
            <Array as="points">
              <mxPoint x="580" y="130" />
            </Array>
          </mxGeometry>
        </mxCell>
        <mxCell id="AOGkiy_fdFvvolxUNDBI-20" style="edgeStyle=orthogonalEdgeStyle;orthogonalLoop=1;jettySize=auto;html=1;curved=1;" edge="1" parent="1" source="AOGkiy_fdFvvolxUNDBI-1" target="AOGkiy_fdFvvolxUNDBI-19">
          <mxGeometry relative="1" as="geometry">
            <Array as="points">
              <mxPoint x="158" y="200" />
              <mxPoint x="395" y="200" />
            </Array>
          </mxGeometry>
        </mxCell>
        <mxCell id="AOGkiy_fdFvvolxUNDBI-1" value="" style="sketch=0;outlineConnect=0;fontColor=#232F3E;gradientColor=none;fillColor=#3F8624;strokeColor=none;dashed=0;verticalLabelPosition=bottom;verticalAlign=top;align=center;html=1;fontSize=12;fontStyle=0;aspect=fixed;pointerEvents=1;shape=mxgraph.aws4.bucket;" vertex="1" parent="1">
          <mxGeometry x="120" y="70" width="75" height="78" as="geometry" />
        </mxCell>
        <mxCell id="AOGkiy_fdFvvolxUNDBI-5" style="edgeStyle=orthogonalEdgeStyle;orthogonalLoop=1;jettySize=auto;html=1;curved=1;exitX=0;exitY=0.5;exitDx=0;exitDy=0;exitPerimeter=0;" edge="1" parent="1" source="AOGkiy_fdFvvolxUNDBI-7" target="AOGkiy_fdFvvolxUNDBI-1">
          <mxGeometry relative="1" as="geometry">
            <Array as="points">
              <mxPoint x="620" y="-84" />
              <mxPoint x="620" y="90" />
            </Array>
          </mxGeometry>
        </mxCell>
        <mxCell id="AOGkiy_fdFvvolxUNDBI-8" style="edgeStyle=orthogonalEdgeStyle;orthogonalLoop=1;jettySize=auto;html=1;curved=1;" edge="1" parent="1" source="AOGkiy_fdFvvolxUNDBI-2" target="AOGkiy_fdFvvolxUNDBI-7">
          <mxGeometry relative="1" as="geometry" />
        </mxCell>
        <mxCell id="AOGkiy_fdFvvolxUNDBI-2" value="Transcribe&lt;br&gt;Lambda::Function" style="outlineConnect=0;dashed=0;verticalLabelPosition=bottom;verticalAlign=top;align=center;html=1;shape=mxgraph.aws3.lambda_function;fillColor=#F58534;gradientColor=none;" vertex="1" parent="1">
          <mxGeometry x="320" y="-120" width="69" height="72" as="geometry" />
        </mxCell>
        <mxCell id="AOGkiy_fdFvvolxUNDBI-7" value="Transcribe" style="sketch=0;points=[[0,0,0],[0.25,0,0],[0.5,0,0],[0.75,0,0],[1,0,0],[0,1,0],[0.25,1,0],[0.5,1,0],[0.75,1,0],[1,1,0],[0,0.25,0],[0,0.5,0],[0,0.75,0],[1,0.25,0],[1,0.5,0],[1,0.75,0]];outlineConnect=0;fontColor=#232F3E;gradientColor=#4AB29A;gradientDirection=north;fillColor=#116D5B;strokeColor=#ffffff;dashed=0;verticalLabelPosition=bottom;verticalAlign=top;align=center;html=1;fontSize=12;fontStyle=0;aspect=fixed;shape=mxgraph.aws4.resourceIcon;resIcon=mxgraph.aws4.transcribe;" vertex="1" parent="1">
          <mxGeometry x="490" y="-123" width="78" height="78" as="geometry" />
        </mxCell>
        <mxCell id="AOGkiy_fdFvvolxUNDBI-9" value="PostProcess&lt;br&gt;Lambda::Function" style="outlineConnect=0;dashed=0;verticalLabelPosition=bottom;verticalAlign=top;align=center;html=1;shape=mxgraph.aws3.lambda_function;fillColor=#F58534;gradientColor=none;" vertex="1" parent="1">
          <mxGeometry x="620" y="73" width="69" height="72" as="geometry" />
        </mxCell>
        <mxCell id="AOGkiy_fdFvvolxUNDBI-17" style="edgeStyle=orthogonalEdgeStyle;rounded=0;orthogonalLoop=1;jettySize=auto;html=1;startArrow=classic;startFill=1;" edge="1" parent="1" source="AOGkiy_fdFvvolxUNDBI-13" target="AOGkiy_fdFvvolxUNDBI-16">
          <mxGeometry relative="1" as="geometry" />
        </mxCell>
        <mxCell id="AOGkiy_fdFvvolxUNDBI-18" style="edgeStyle=orthogonalEdgeStyle;orthogonalLoop=1;jettySize=auto;html=1;curved=1;exitX=0.145;exitY=0.145;exitDx=0;exitDy=0;exitPerimeter=0;" edge="1" parent="1" source="AOGkiy_fdFvvolxUNDBI-13" target="AOGkiy_fdFvvolxUNDBI-1">
          <mxGeometry relative="1" as="geometry">
            <Array as="points">
              <mxPoint x="540" y="170" />
              <mxPoint x="280" y="170" />
              <mxPoint x="280" y="140" />
            </Array>
          </mxGeometry>
        </mxCell>
        <mxCell id="AOGkiy_fdFvvolxUNDBI-13" value="Translate&lt;br&gt;Lambda::Function" style="outlineConnect=0;dashed=0;verticalLabelPosition=bottom;verticalAlign=top;align=center;html=1;shape=mxgraph.aws3.lambda_function;fillColor=#F58534;gradientColor=none;" vertex="1" parent="1">
          <mxGeometry x="530" y="210" width="69" height="72" as="geometry" />
        </mxCell>
        <mxCell id="AOGkiy_fdFvvolxUNDBI-16" value="Translate" style="sketch=0;points=[[0,0,0],[0.25,0,0],[0.5,0,0],[0.75,0,0],[1,0,0],[0,1,0],[0.25,1,0],[0.5,1,0],[0.75,1,0],[1,1,0],[0,0.25,0],[0,0.5,0],[0,0.75,0],[1,0.25,0],[1,0.5,0],[1,0.75,0]];outlineConnect=0;fontColor=#232F3E;gradientColor=#4AB29A;gradientDirection=north;fillColor=#116D5B;strokeColor=#ffffff;dashed=0;verticalLabelPosition=bottom;verticalAlign=top;align=center;html=1;fontSize=12;fontStyle=0;aspect=fixed;shape=mxgraph.aws4.resourceIcon;resIcon=mxgraph.aws4.translate;" vertex="1" parent="1">
          <mxGeometry x="689" y="207" width="78" height="78" as="geometry" />
        </mxCell>
        <mxCell id="AOGkiy_fdFvvolxUNDBI-22" style="edgeStyle=orthogonalEdgeStyle;rounded=0;orthogonalLoop=1;jettySize=auto;html=1;" edge="1" parent="1" source="AOGkiy_fdFvvolxUNDBI-19" target="AOGkiy_fdFvvolxUNDBI-21">
          <mxGeometry relative="1" as="geometry" />
        </mxCell>
        <mxCell id="AOGkiy_fdFvvolxUNDBI-19" value="Test2Speech&lt;br&gt;Lambda::Function" style="outlineConnect=0;dashed=0;verticalLabelPosition=bottom;verticalAlign=top;align=center;html=1;shape=mxgraph.aws3.lambda_function;fillColor=#F58534;gradientColor=none;" vertex="1" parent="1">
          <mxGeometry x="360" y="240" width="69" height="72" as="geometry" />
        </mxCell>
        <mxCell id="AOGkiy_fdFvvolxUNDBI-23" style="edgeStyle=orthogonalEdgeStyle;orthogonalLoop=1;jettySize=auto;html=1;curved=1;" edge="1" parent="1" source="AOGkiy_fdFvvolxUNDBI-21" target="AOGkiy_fdFvvolxUNDBI-1">
          <mxGeometry relative="1" as="geometry">
            <Array as="points">
              <mxPoint x="140" y="276" />
            </Array>
          </mxGeometry>
        </mxCell>
        <mxCell id="AOGkiy_fdFvvolxUNDBI-21" value="Polly" style="sketch=0;points=[[0,0,0],[0.25,0,0],[0.5,0,0],[0.75,0,0],[1,0,0],[0,1,0],[0.25,1,0],[0.5,1,0],[0.75,1,0],[1,1,0],[0,0.25,0],[0,0.5,0],[0,0.75,0],[1,0.25,0],[1,0.5,0],[1,0.75,0]];outlineConnect=0;fontColor=#232F3E;gradientColor=#4AB29A;gradientDirection=north;fillColor=#116D5B;strokeColor=#ffffff;dashed=0;verticalLabelPosition=bottom;verticalAlign=top;align=center;html=1;fontSize=12;fontStyle=0;aspect=fixed;shape=mxgraph.aws4.resourceIcon;resIcon=mxgraph.aws4.polly;" vertex="1" parent="1">
          <mxGeometry x="220" y="237" width="78" height="78" as="geometry" />
        </mxCell>
      </root>
    </mxGraphModel>
  </diagram>
</mxfile>
